<?xml version="1.0" encoding="UTF-8" standalone="no"?><!DOCTYPE svg PUBLIC "-//W3C//DTD SVG 1.1//EN" "http://www.w3.org/Graphics/SVG/1.1/DTD/svg11.dtd"><svg width="100%" height="100%" viewBox="0 0 1000 1000" version="1.1" xmlns="http://www.w3.org/2000/svg" xmlns:xlink="http://www.w3.org/1999/xlink" xml:space="preserve" xmlns:serif="http://www.serif.com/" style="fill-rule:evenodd;clip-rule:evenodd;stroke-linejoin:round;stroke-miterlimit:1.41421;"><g><path id="folder" d="M745.686,347.97c-3.245,-12.862 -19.146,-23.356 -35.369,-23.356l-199.18,0c-16.194,0 -38.877,-9.295 -50.336,-20.666l-17.421,-17.188c-11.459,-11.37 -34.113,-20.607 -50.307,-20.607l-95.146,0c-16.224,0 -30.956,13.066 -32.739,29.055l-8.536,87.868l494.909,0l-5.875,-35.106l0,0Zm29.436,64.337l-550.244,0c-9.997,0 -17.83,8.594 -16.866,18.562l26.98,282.634c1.082,11.517 10.787,20.344 22.391,20.344l485.234,0c11.604,0 21.28,-8.827 22.391,-20.344l26.98,-282.634c0.964,-9.968 -6.869,-18.562 -16.866,-18.562l0,0Z" style="fill:url(#_Radial1);fill-rule:nonzero;"/><path id="flow-tree" d="M591.739,628.396l0,-26.65c0,-22.167 -17.97,-40.136 -40.136,-40.136l-22.935,0c-9.495,0 -17.201,-7.706 -17.201,-17.201l0,-26.65c9.461,-4.358 16.055,-13.853 16.055,-24.953c0,-15.206 -12.316,-27.521 -27.522,-27.521c-15.206,0 -27.522,12.315 -27.522,27.521c0,11.089 6.606,20.595 16.055,24.953l0,26.65c0,9.495 -7.706,17.201 -17.201,17.201l-22.935,0c-22.166,0 -40.136,17.969 -40.136,40.136l0,26.65c-9.46,4.357 -16.054,13.864 -16.054,24.953c0,15.205 12.316,27.521 27.522,27.521c15.205,0 27.521,-12.327 27.521,-27.521c0,-11.089 -6.605,-20.596 -16.054,-24.953l0,-26.65c0,-9.495 7.706,-17.201 17.201,-17.201l22.935,0c6.181,0 11.972,-1.514 17.201,-4.014l0,47.865c-9.461,4.357 -16.055,13.864 -16.055,24.953c0,15.205 12.316,27.521 27.522,27.521c15.206,0 27.522,-12.327 27.522,-27.521c0,-11.089 -6.606,-20.596 -16.055,-24.953l0,-47.865c5.229,2.5 11.02,4.014 17.201,4.014l22.935,0c9.495,0 17.201,7.706 17.201,17.201l0,26.65c-9.461,4.357 -16.054,13.852 -16.054,24.953c0,15.205 12.316,27.521 27.521,27.521c15.206,0 27.522,-12.327 27.522,-27.521c0,-11.089 -6.594,-20.596 -16.054,-24.953Zm-91.739,-151.472c8.761,0 15.871,7.098 15.871,15.882c0,8.761 -7.11,15.882 -15.871,15.882c-8.761,0 -15.871,-7.121 -15.871,-15.882c0,-8.784 7.099,-15.882 15.871,-15.882Zm-80.271,192.307c-8.784,0 -15.882,-7.121 -15.882,-15.882c0,-8.784 7.098,-15.883 15.882,-15.883c8.761,0 15.871,7.099 15.871,15.883c0,8.761 -7.11,15.882 -15.871,15.882l0,0Zm80.271,0c-8.784,0 -15.882,-7.121 -15.882,-15.882c0,-8.784 7.098,-15.883 15.882,-15.883c8.761,0 15.871,7.099 15.871,15.883c0,8.761 -7.11,15.882 -15.871,15.882Zm80.271,0c-8.784,0 -15.882,-7.121 -15.882,-15.882c0,-8.784 7.098,-15.883 15.882,-15.883c8.761,0 15.871,7.099 15.871,15.883c0,8.761 -7.11,15.882 -15.871,15.882Z" style="fill:#fefffe;fill-rule:nonzero;"/></g><path d="M866.994,858.584c5.12,0 9.278,4.157 9.278,9.278c0,5.121 -4.158,9.278 -9.278,9.278c-5.121,0 -9.279,-4.157 -9.279,-9.278c0,-5.121 4.158,-9.278 9.279,-9.278Zm-734.021,-22.681c10.811,0 19.588,8.777 19.588,19.588c0,10.81 -8.777,19.587 -19.588,19.587c-10.811,0 -19.588,-8.777 -19.588,-19.587c0,-10.811 8.777,-19.588 19.588,-19.588Zm457.732,-65.979c9.673,0 17.526,7.853 17.526,17.525c0,9.673 -7.853,17.526 -17.526,17.526c-9.673,0 -17.526,-7.853 -17.526,-17.526c0,-9.672 7.853,-17.525 17.526,-17.525Zm202.062,-124.743c4.552,0 8.247,3.696 8.247,8.248c0,4.552 -3.695,8.247 -8.247,8.247c-4.552,0 -8.248,-3.695 -8.248,-8.247c0,-4.552 3.696,-8.248 8.248,-8.248Zm78.35,-213.402c13.087,0 23.712,10.625 23.712,23.712c0,13.086 -10.625,23.711 -23.712,23.711c-13.086,0 -23.711,-10.625 -23.711,-23.711c0,-13.087 10.625,-23.712 23.711,-23.712Zm-665.979,-165.979c12.518,0 22.68,10.163 22.68,22.68c0,12.518 -10.162,22.681 -22.68,22.681c-12.518,0 -22.681,-10.163 -22.681,-22.681c0,-12.517 10.163,-22.68 22.681,-22.68Zm276.289,-205.155c8.534,0 15.463,6.93 15.463,15.464c0,8.535 -6.929,15.464 -15.463,15.464c-8.535,0 -15.464,-6.929 -15.464,-15.464c0,-8.534 6.929,-15.464 15.464,-15.464Zm346.391,-7.216c10.242,0 18.557,8.315 18.557,18.557c0,10.241 -8.315,18.556 -18.557,18.556c-10.241,0 -18.556,-8.315 -18.556,-18.556c0,-10.242 8.315,-18.557 18.556,-18.557Z" style="fill:#764cf0;"/><defs><radialGradient id="_Radial1" cx="0" cy="0" r="1" gradientUnits="userSpaceOnUse" gradientTransform="matrix(447.703,267.738,-356.457,596.057,207.932,803.093)"><stop offset="0" style="stop-color:#f50057;stop-opacity:1"/><stop offset="1" style="stop-color:#764cf0;stop-opacity:1"/></radialGradient></defs></svg>