<?xml version="1.0" encoding="UTF-8" standalone="no"?><!DOCTYPE svg PUBLIC "-//W3C//DTD SVG 1.1//EN" "http://www.w3.org/Graphics/SVG/1.1/DTD/svg11.dtd"><svg width="100%" height="100%" viewBox="0 0 1000 1000" version="1.1" xmlns="http://www.w3.org/2000/svg" xmlns:xlink="http://www.w3.org/1999/xlink" xml:space="preserve" xmlns:serif="http://www.serif.com/" style="fill-rule:evenodd;clip-rule:evenodd;stroke-linejoin:round;stroke-miterlimit:1.41421;"><path id="mail" d="M565.219,413.453c-6.485,14.091 -86.275,187.598 -90.233,196.248c-3.959,8.651 -8.276,12.805 -14.659,18c-6.382,5.195 -11.327,8.579 -20.6,10.698c-9.274,2.12 -194.624,44.381 -209.739,47.87c-10.634,2.434 -6.988,6.755 -4.241,10.13c2.747,3.376 108.887,133.784 108.887,133.784c6.271,7.704 25.944,9.38 34.389,2.506l311.34,-253.401c8.445,-6.874 10.799,-26.477 4.528,-34.182c0,0 -106.125,-130.39 -108.872,-133.765c-2.747,-3.375 -6.238,-7.823 -10.8,2.112Zm-364.449,229.444c13.408,-2.922 199.176,-43.359 206.095,-44.873c6.919,-1.515 14.218,-5.504 20.601,-10.699c6.382,-5.194 11.77,-11.531 14.658,-17.999c2.888,-6.467 80.202,-180.155 85.786,-192.69c5.589,-12.569 -0.695,-38.652 -18.15,-24.446l-329.222,267.956c-17.454,14.207 6.809,25.656 20.232,22.751l0,0Zm452.403,-277.641c6.945,-5.111 16.927,-12.15 31.031,-22.566c20.413,10.528 24.16,21.284 50.998,9.073c-11.541,-4.035 -16.857,-20.611 -13.625,-23.738c3.232,-3.127 24.542,21.981 59.077,10.388c-24.764,-10.946 -23.981,-26.299 -20.086,-25.841c8.991,1.05 26.27,16.981 43.484,14.576c8.87,-1.233 20.277,-11.685 21.373,-17.596c1.348,-7.131 -8.289,-26.319 -17.332,-31.815c-9.043,-5.497 -45.583,16.331 -49.362,13.181c-3.762,-3.146 5.657,-17.658 22.058,-25.525c-9.641,-2.12 -30.325,-1.9 -40.791,3.589c-19.478,10.202 -37.788,52.994 -41.469,52.287c-3.682,-0.707 0.376,-25.518 3.65,-35.725c-12.97,9.805 -22.293,22.318 -23.609,47.062c-12.177,7.933 -23.698,18.895 -28.754,25.059c-3.927,5.008 0.318,9.819 3.357,7.591l0,0Zm-239.078,-5.631c-2.784,-4.613 -6.581,-11.265 -12.259,-20.631c8.882,-15.343 16.406,-18.775 10.682,-37.128c-3.741,8.54 -15.294,13.501 -17.09,11.406c-1.795,-2.094 16.906,-19.096 12.294,-43.001c-9.556,18.485 -19.74,18.997 -19.08,16.177c1.516,-6.507 13.722,-19.984 13.677,-32.135c-0.02,-6.261 -5.967,-13.695 -9.816,-14.067c-4.64,-0.466 -18.33,7.769 -22.82,14.624c-4.491,6.855 6.776,31.48 4.329,34.404c-2.442,2.912 -11.281,-2.816 -15.049,-14.004c-2.289,7.047 -4.017,21.834 -1.3,28.94c5.049,13.227 31.97,23.344 31.164,26.027c-0.806,2.684 -17.009,1.512 -23.53,-0.118c5.373,8.596 12.885,14.395 29.293,13.61c4.195,8.16 10.472,15.64 14.131,18.828c2.989,2.46 6.587,-0.913 5.374,-2.932l0,0Zm96.633,-101.265c-1.049,2.067 -5.778,0.951 -5.408,-2.872c0.603,-4.815 3.305,-14.199 7.734,-22.234c-9.81,-13.176 -9.193,-22.645 -5.059,-31.902c2.287,6.32 10.359,20.419 13.036,19.589c2.676,-0.829 -3.958,-28.813 4.199,-40.385c4.379,-6.221 17.612,-13.042 24.737,-15.076c-7.18,9.372 -6.997,19.902 -3.219,20.304c3.793,0.397 17.935,-22.697 26.129,-22.797c8.195,-0.101 22.669,6.661 24.872,10.771c1.839,3.401 -1.009,12.485 -6.192,15.997c-10.057,6.82 -28.052,4.215 -34.298,6.589c-2.707,1.027 3.402,9.191 24.073,6.801c-17.259,17.171 -41.805,11.145 -42.54,13.803c-0.736,2.659 9.829,9.476 19.003,7.813c-12.033,14.994 -19.08,10.667 -36.768,11.861c-4.601,9.94 -8.001,16.804 -10.275,21.688l-0.011,0.025l-0.013,0.025Z" style="fill:url(#_Radial1);fill-rule:nonzero;"/><path d="M826.804,904.124c5.121,0 9.278,4.157 9.278,9.278c0,5.121 -4.157,9.278 -9.278,9.278c-5.121,0 -9.278,-4.157 -9.278,-9.278c0,-5.121 4.157,-9.278 9.278,-9.278Zm-734.02,-22.681c10.81,0 19.587,8.777 19.587,19.588c0,10.811 -8.777,19.588 -19.587,19.588c-10.811,0 -19.588,-8.777 -19.588,-19.588c0,-10.811 8.777,-19.588 19.588,-19.588Zm457.731,-65.979c9.673,0 17.526,7.853 17.526,17.526c0,9.672 -7.853,17.525 -17.526,17.525c-9.672,0 -17.525,-7.853 -17.525,-17.525c0,-9.673 7.853,-17.526 17.525,-17.526Zm202.062,-124.742c4.552,0 8.248,3.695 8.248,8.247c0,4.552 -3.696,8.247 -8.248,8.247c-4.552,0 -8.247,-3.695 -8.247,-8.247c0,-4.552 3.695,-8.247 8.247,-8.247Zm78.351,-213.402c13.086,0 23.711,10.624 23.711,23.711c0,13.087 -10.625,23.711 -23.711,23.711c-13.087,0 -23.712,-10.624 -23.712,-23.711c0,-13.087 10.625,-23.711 23.712,-23.711Zm-665.98,-165.98c12.518,0 22.681,10.163 22.681,22.681c0,12.517 -10.163,22.68 -22.681,22.68c-12.517,0 -22.68,-10.163 -22.68,-22.68c0,-12.518 10.163,-22.681 22.68,-22.681Zm276.289,-205.154c8.535,0 15.464,6.929 15.464,15.463c0,8.535 -6.929,15.464 -15.464,15.464c-8.535,0 -15.464,-6.929 -15.464,-15.464c0,-8.534 6.929,-15.463 15.464,-15.463Zm346.392,-7.217c10.242,0 18.557,8.315 18.557,18.557c0,10.241 -8.315,18.556 -18.557,18.556c-10.242,0 -18.557,-8.315 -18.557,-18.556c0,-10.242 8.315,-18.557 18.557,-18.557Z" style="fill:#764cf0;"/><defs><radialGradient id="_Radial1" cx="0" cy="0" r="1" gradientUnits="userSpaceOnUse" gradientTransform="matrix(147.606,-742.084,687.054,136.66,648.233,1006.23)"><stop offset="0" style="stop-color:#f50057;stop-opacity:1"/><stop offset="1" style="stop-color:#764cf0;stop-opacity:1"/></radialGradient></defs></svg>