<?xml version="1.0" encoding="UTF-8" standalone="no"?><!DOCTYPE svg PUBLIC "-//W3C//DTD SVG 1.1//EN" "http://www.w3.org/Graphics/SVG/1.1/DTD/svg11.dtd"><svg width="100%" height="100%" viewBox="0 0 1000 1000" version="1.1" xmlns="http://www.w3.org/2000/svg" xmlns:xlink="http://www.w3.org/1999/xlink" xml:space="preserve" xmlns:serif="http://www.serif.com/" style="fill-rule:evenodd;clip-rule:evenodd;stroke-linejoin:round;stroke-miterlimit:1.41421;"><path id="feather" d="M334.619,780.24c8.836,-28.263 22.162,-68.039 40.035,-125.544c77.911,-12.347 110.146,9.815 159.621,-78.544c-40.15,12.29 -88.56,-22.795 -85.969,-38.02c2.59,-15.225 112.621,10.966 184.66,-91.323c-90.805,20.032 -119.845,-24.061 -108.131,-30.71c27.026,-15.369 107.239,-6.389 150.008,-48.036c22.047,-21.442 32.379,-73.565 23.399,-92.158c-10.764,-22.478 -76.443,-56.008 -112.65,-52.842c-36.206,3.166 -92.992,137.862 -109.858,136.826c-16.808,-1.065 -20.233,-60.383 9.181,-115.499c-30.997,13.729 -87.811,56.383 -105.627,92.848c-33.185,67.838 3.108,223.516 -8.519,229.042c-11.628,5.526 -50.828,-71.406 -62.513,-106.318c-15.974,53.504 -16.348,107.095 30.306,178.271c-17.585,46.712 -27.198,100.476 -28.666,127.818c-0.69,21.845 20.838,26.536 24.723,14.189l0,0Z" style="fill:url(#_Radial1);fill-rule:nonzero;"/><path d="M445.361,903.093c7.966,0 14.433,6.467 14.433,14.433c0,7.966 -6.467,14.433 -14.433,14.433c-7.966,0 -14.433,-6.467 -14.433,-14.433c0,-7.966 6.467,-14.433 14.433,-14.433Zm373.196,-139.17c12.706,0 23.022,10.316 23.022,23.022c0,12.707 -10.316,23.023 -23.022,23.023c-12.707,0 -23.022,-10.316 -23.022,-23.023c0,-12.706 10.315,-23.022 23.022,-23.022Zm-670.103,0c12.706,0 23.022,10.316 23.022,23.022c0,12.707 -10.316,23.023 -23.022,23.023c-12.707,0 -23.022,-10.316 -23.022,-23.023c0,-12.706 10.315,-23.022 23.022,-23.022Zm575.257,-282.957c13.21,0 23.935,10.724 23.935,23.934c0,13.209 -10.725,23.934 -23.935,23.934c-13.209,0 -23.934,-10.725 -23.934,-23.934c0,-13.21 10.725,-23.934 23.934,-23.934Zm-461.855,-41.791c9.103,0 16.495,7.391 16.495,16.495c0,9.104 -7.392,16.495 -16.495,16.495c-9.104,0 -16.495,-7.391 -16.495,-16.495c0,-9.104 7.391,-16.495 16.495,-16.495Zm0,-210.309c9.103,0 16.495,7.391 16.495,16.495c0,9.104 -7.392,16.495 -16.495,16.495c-9.104,0 -16.495,-7.391 -16.495,-16.495c0,-9.104 7.391,-16.495 16.495,-16.495Zm439.621,-112.956c12.271,0 22.234,9.963 22.234,22.234c0,12.272 -9.963,22.235 -22.234,22.235c-12.272,0 -22.235,-9.963 -22.235,-22.235c0,-12.271 9.963,-22.234 22.235,-22.234Z" style="fill:#764cf0;"/><defs><radialGradient id="_Radial1" cx="0" cy="0" r="1" gradientUnits="userSpaceOnUse" gradientTransform="matrix(335.75,-155.447,184.811,399.173,553.608,684.281)"><stop offset="0" style="stop-color:#f50057;stop-opacity:1"/><stop offset="1" style="stop-color:#764cf0;stop-opacity:1"/></radialGradient></defs></svg>