<?xml version="1.0" encoding="UTF-8" standalone="no"?><!DOCTYPE svg PUBLIC "-//W3C//DTD SVG 1.1//EN" "http://www.w3.org/Graphics/SVG/1.1/DTD/svg11.dtd"><svg width="100%" height="100%" viewBox="0 0 1000 1000" version="1.1" xmlns="http://www.w3.org/2000/svg" xmlns:xlink="http://www.w3.org/1999/xlink" xml:space="preserve" xmlns:serif="http://www.serif.com/" style="fill-rule:evenodd;clip-rule:evenodd;stroke-linejoin:round;stroke-miterlimit:1.41421;"><path id="tree" d="M911.402,500c0,-52.834 -31.184,-101.552 -83.556,-140.605c-0.082,-0.039 -0.164,-0.039 -0.205,-0.116c-14.893,-138.664 -155.798,-247.476 -327.641,-247.476c-171.843,0 -312.748,108.812 -327.641,247.476c-0.041,0.077 -0.123,0.077 -0.205,0.116c-52.372,39.053 -83.556,87.771 -83.556,140.605c0,120.807 162.38,220.069 370.262,231.754l0,39.984c0,38.82 -74.917,74.184 -74.917,74.184c-4.072,1.903 -6.088,6.716 -4.484,10.754c0,0 12.548,31.521 38.261,31.521c25.712,0 46.241,-19.41 97.666,-19.41c51.426,0 100.341,16.77 100.341,16.77c4.197,1.476 10.327,0.195 13.536,-2.833l29.497,-27.834c3.209,-3.028 2.386,-6.716 -1.892,-8.23c0,0 -74.546,-26.397 -74.546,-74.922l0,-43.517c187.764,-21.545 329.08,-115.527 329.08,-228.221l0,0Zm-740.524,0c0,-39.557 31.596,-75.504 83.186,-102.911c-0.412,-4.503 -0.905,-9.006 -0.905,-13.548c0,-107.22 110.543,-194.099 246.841,-194.099c136.298,0 246.841,86.879 246.841,194.099c0,4.542 -0.493,9.045 -0.864,13.548c51.549,27.407 83.145,63.354 83.145,102.911c0,72.36 -104.949,132.919 -246.8,150.193l0,-25.931c0,-4.27 2.674,-10.171 5.965,-13.082l75.41,-67.003c3.291,-2.95 6.006,-8.812 6.006,-13.082l0,-33.036c0,-4.27 -3.208,-6.017 -7.076,-3.843l-73.188,40.644c-3.95,2.174 -7.117,0.466 -7.117,-3.843l0,-139.712c0,-4.27 -3.497,-6.677 -7.817,-5.319l-107.829,33.929c-4.278,1.359 -7.775,5.939 -7.775,10.21l0,100.931c0,4.27 -3.25,6.133 -7.282,4.153l-83.185,-41.304c-3.991,-1.98 -9.874,-1.164 -13.083,1.864l-14.07,13.276c-3.209,3.028 -3.003,7.803 0.37,10.598l111.079,91.653c3.415,2.834 6.171,8.618 6.171,12.888l0,29.697c-162.298,-9.51 -288.023,-74.689 -288.023,-153.881l0,0Z" style="fill:#08d759;fill-rule:nonzero;"/></svg>